<svg id="Capa_1" enable-background="new 0 0 497 497" viewBox="0 0 497 497" width="512" xmlns="http://www.w3.org/2000/svg"><g><path d="m170.734 446.599-17.405-7.172-40.501-16.225c-10.901 12.583-30.433 12.757-41.33.17l-41.414 17.843c-9.374 3.863-15.492 13-15.492 23.139v21.636c0 5.529 4.482 10.01 10.01 10.01l1.985 1h44.91l21.163-2.266 20.178 2.266h36.93l20.966-2.904z" fill="#ccf49f"/><path d="m71.498 422.74 1.44 37.13-1.44 37.13-40.49-57.57 19.826-6.68z" fill="#b3e59f"/><path d="m74.378 435.61-40.34 16.63c-4.52 1.86-7.45 6.22-7.45 11.11v33.65h-2.99c-5.52 0-10.01-4.48-10.01-10.01v-23.64c0-10.13 6.12-19.27 15.5-23.13l1.92-.791 14.21-4.78 26.281-11.909v10.01l.01.01c.899 1.04 1.859 1.99 2.869 2.85z" fill="#b3e59f"/><path d="m71.498 422.74 1.889 5.696-1.889 8.364-32.82 13.53-7.67-10.9z" fill="#95d6a4"/><path d="m259.936 6.967 17.492 35.443c1.821 3.689 5.34 6.246 9.411 6.838l39.114 5.684c10.252 1.49 14.346 14.089 6.927 21.32l-28.303 27.589c-2.946 2.872-4.29 7.009-3.595 11.063l6.681 38.956c.403 2.348.159 4.572-.587 6.54-2.496 6.59-10.948 9.132-18.01 5.419l-34.521-18.447c-3.641-1.914-7.991-1.914-11.633 0l-34.08 18.638c-9.17 4.821-19.887-2.966-18.136-13.176l6.71-37.888c.695-4.055-.649-8.192-3.595-11.063l-27.871-27.617c-5.804-5.658-5.927-14.616-.201-18.953 1.592-1.206 3.531-2.056 5.762-2.38l39.114-5.684c4.071-.592 7.59-3.149 9.411-6.838l17.492-35.443c4.586-9.29 17.833-9.29 22.418-.001z" fill="#ffd163"/><path d="m307.078 160.4c-2.51 6.59-10.49 10.35-17.55 6.64l-34.98-18.4c-3.64-1.91-8-1.91-11.64 0l-34.98 18.4c-9.17 4.82-19.89-2.97-18.14-13.18l6.68-38.96c.7-4.05-.64-8.19-3.59-11.06l-28.3-27.59c-5.8-5.66-4.57-14.6 1.16-18.94l36.91 36.5c6.25 6.09 9.1 14.86 7.62 23.46l-5.134 29.969c-.42 2.451 2.153 4.319 4.353 3.162l26.911-14.151c3.79-1.99 8.05-3.04 12.33-3.04s8.54 1.05 12.33 3.04z" fill="#ffb65f"/><g><path d="m412.311 93.477 12.496 25.319c1.301 2.635 3.815 4.462 6.723 4.884l27.942 4.06c7.324 1.064 10.248 10.064 4.949 15.23l-20.219 19.708c-2.104 2.051-3.065 5.007-2.568 7.903l4.773 27.829c1.251 7.294-6.596 12.106-13.147 8.663l-25.328-13.489c-2.601-1.368-5.709-1.368-8.31 0l-23.619 13.179c-6.551 3.444-14.206-2.119-12.955-9.413l4.993-27.075c.497-2.896-.464-5.852-2.568-7.903l-19.234-19.085c-5.226-5.094-4.505-14.234 2.598-15.497.099-.018.2-.034.301-.049l27.942-4.06c2.908-.423 5.422-2.249 6.723-4.884l12.496-25.319c3.273-6.637 12.737-6.637 16.012-.001z" fill="#ffd163"/><path d="m433.448 207.82-24.99-13.13c-2.6-1.37-5.71-1.37-8.31 0l-24.99 13.13c-6.55 3.45-14.21-2.11-12.96-9.41l4.78-27.83c.49-2.89-.47-5.85-2.57-7.9l-20.22-19.71c-5.23-5.09-2.45-13.91 4.65-15.17l25.34 24.86c5.41 5.26 7.87 12.85 6.6 20.29l-2.354 13.705c-.281 1.634 1.434 2.88 2.902 2.109l12.312-6.473c3.28-1.72 6.96-2.63 10.67-2.63 3.7 0 7.39.91 10.67 2.63l31.44 16.2c1.18 7.259-6.44 12.769-12.97 9.329z" fill="#ffb65f"/></g><g><path d="m100.163 93.477 12.496 25.319c1.301 2.635 3.815 4.462 6.723 4.884l27.942 4.06c7.324 1.064 10.248 10.064 4.949 15.23l-20.219 19.708c-2.104 2.051-3.065 5.007-2.568 7.903l4.773 27.829c1.251 7.294-6.596 12.106-13.147 8.663l-25.328-13.489c-2.601-1.368-5.709-1.368-8.31 0l-23.619 13.179c-6.55 3.444-14.206-2.119-12.955-9.413l4.993-27.075c.497-2.896-.464-5.852-2.568-7.903l-19.235-19.085c-5.226-5.094-4.505-14.234 2.598-15.497.099-.018.2-.034.301-.049l27.942-4.06c2.908-.423 5.422-2.249 6.723-4.884l12.496-25.319c3.274-6.637 12.738-6.637 16.013-.001z" fill="#ffd163"/><path d="m121.3 207.82-24.99-13.13c-2.6-1.37-5.71-1.37-8.31 0l-24.99 13.13c-6.55 3.45-14.21-2.11-12.96-9.41l4.78-27.83c.49-2.89-.47-5.85-2.57-7.9l-20.22-19.71c-5.23-5.09-2.45-13.91 4.65-15.17l25.34 24.86c5.41 5.26 7.87 12.85 6.6 20.29l-2.354 13.705c-.281 1.634 1.434 2.88 2.902 2.109l12.312-6.473c3.28-1.72 6.96-2.63 10.67-2.63 3.7 0 7.39.91 10.67 2.63l31.44 16.2c1.18 7.259-6.44 12.769-12.97 9.329z" fill="#ffb65f"/></g><g><g><path d="m247.883 118.49c-6.247 0-10.159-.729-16.061-4.584-3.468-2.266-4.443-6.913-2.177-10.381 2.265-3.469 6.913-4.441 10.38-2.178 3.103 2.026 4.021 2.168 8.352 2.141 3.784-.025 5.29-2.985 5.583-4.731.545-3.248-1.999-4.146-2.835-4.441-1.318-.466-2.571-.838-3.782-1.198-4.369-1.3-8.887-2.644-12.874-7.393-3.212-3.827-4.471-9.361-3.367-14.804 1.188-5.857 4.837-10.732 10.011-13.377 8.146-4.165 16.521-1.131 21.645 3.097 3.194 2.636 3.647 7.363 1.011 10.558-2.636 3.194-7.363 3.649-10.559 1.011-.122-.101-3.02-2.459-5.271-1.308-1.423.727-1.931 2.106-2.106 2.864-.29 1.25-.006 2.138.129 2.32.986 1.174 1.953 1.552 5.657 2.653 1.325.395 2.826.841 4.5 1.432 9.132 3.225 14.209 11.692 12.634 21.071-1.667 9.926-10.194 17.179-20.275 17.246-.201.001-.399.002-.595.002z" fill="#ffb65f"/></g><g><path d="m248.728 128.13c-4.142 0-7.5-3.357-7.5-7.5v-9.642c0-4.143 3.358-7.5 7.5-7.5s7.5 3.357 7.5 7.5v9.642c0 4.142-3.358 7.5-7.5 7.5z" fill="#ffb65f"/></g><g><path d="m248.728 70.574c-4.142 0-7.5-3.357-7.5-7.5v-8.674c0-4.143 3.358-7.5 7.5-7.5s7.5 3.357 7.5 7.5v8.674c0 4.143-3.358 7.5-7.5 7.5z" fill="#ffb65f"/></g></g><path d="m425.505 422.739v-6.429l-2.331-9.023 2.331-26.671h-39.827v42.123l-12.461 46.548h64.34z" fill="#e3a76f"/><path d="m467.921 440.216-42.415-17.477c.186 13.367-4.5 26.336-13.169 36.491-.168.196-.183.842-.354 1.037l-7.234 8.362-7-8.468c-.121-.139-.294-.857-.414-.998-5.692-6.673-9.667-14.561-11.669-22.979-1.01-4.246-1.968-7.227-1.941-11.655l.002-.389-42 17.617c-9.374 3.863-15.457 11.46-15.457 21.599v30.486l21.42 3.16h49.648l8.05-3.883 6.95 3.883h61.064c5.529 0 10.01-4.482 10.01-10.01v-23.636c0-10.141-6.117-19.278-15.491-23.14z" fill="#d6ccf2"/><path d="m397.178 380.62h-13v35.7 6.419l-2.833 6.506 4.333 6.935 9.024-3.72c1.498-.617 2.476-2.078 2.476-3.698v-4.43c0-1.237 1.111-2.167 2.331-1.964 1.766.295 3.544.451 5.329.451 7.1 0 14.11-2.4 20.67-6.51v-35.69h-28.33z" fill="#d6995c"/><path d="m385.678 436.18-5.17 2.13-33.79 13.93c-4.53 1.86-7.45 6.22-7.45 11.11v33.65l-6.902-5.245-6.098 5.245v-33.65c0-10.13 6.12-19.27 15.49-23.13l42.42-17.48v.39c-.03 4.43.48 8.81 1.5 13.05z" fill="#c8b8f4"/><g><path d="m412.338 459.23v37.77h-15v-37.84c.12.14.24.28.36.42l4.887 5.613c1.192 1.369 3.319 1.374 4.517.009l4.726-5.382c.17-.2.34-.39.51-.59z" fill="#c8b8f4"/></g><path d="m153.328 439.43-40.49 57.57h-.01l-1.271-34.436 1.271-29.8-1.271-3.902 1.271-6.122z" fill="#b3e59f"/><path d="m329.1 425.858-54.345-22.393-.008.009c-1.196 1.381-3.832 1.523-5.178 2.663-12.645 10.704-40.436-.681-40.436-.681l-6.431-1.319-51.967 21.978c-11.249 4.635-18.59 15.6-18.59 27.766l-.501 41.362 11.124 1.757h78.45l7.957-2.84 7.043 2.84h91.472v-43.375c0-12.167-7.341-23.131-18.59-27.767z" fill="#df646e"/><path d="m234.928 412.49-61.62 25.39c-6.4 2.64-10.54 8.82-10.54 15.74v43.38h-13v-43.38c0-12.16 7.34-23.13 18.59-27.76l54.34-22.39 6.434 1.987z" fill="#dc4955"/><g><path d="m313.455 474.389h-28.329c-4.142 0-7.5-3.357-7.5-7.5s3.358-7.5 7.5-7.5h28.329c4.142 0 7.5 3.357 7.5 7.5s-3.358 7.5-7.5 7.5z" fill="#f8f7f7"/></g><g><path d="m270.208 407.85v29.37c0 7.83-6.23 14.22-13.99 14.49v45.29h-15v-45.79c0-7.82 6.23-14.22 13.99-14.48v-21.98l6.775-4.782z" fill="#dc4955"/></g><path d="m274.755 350.411h-52.054l1.41 51.557s6.281 8.54 10.818 10.52c13.303 5.806 29.572 2.805 39.81-9.004l.016-.018v-22.046l-1.878-3.877z" fill="#f2d1a5"/><path d="m222.698 350.41v31.01 22.05c1.29 1.49 2.68 2.84 4.14 4.05.73.6 1.48 1.17 2.24 1.7 1.86 1.29 3.82 2.38 5.85 3.27v-22.848c0-1.882 1.707-3.272 3.56-2.943 3.295.585 6.706.891 10.23.891 9.53 0 18.24-2.22 26.04-6.17v-31.01z" fill="#f2bb88"/><path d="m306.913 292.023c0-37.668-20.526-68.204-58.194-68.204s-58.194 30.536-58.194 68.204 20.526 82.563 58.194 82.563 58.194-44.895 58.194-82.563z" fill="#f2d1a5"/><path d="m286.145 237.591c-1.618-.127-3.228-.147-4.807-.073 0-.003-.001-.006-.001-.008-4.68.23-9.09 1.28-12.67 2.83l-.047.125c-.327-3.408-1.322-6.558-3.046-9.252-1.716-2.68-4.067-4.895-6.898-6.633-3.173-.499-6.491-.762-9.957-.762-37.668 0-58.194 30.536-58.194 68.204 0 7.809 1.694 19.391 3.429 27.357 1.642-2.206 5.764-10.109 10.324-14.773 7.407-7.575 12.955-14.121 28.173-19.66 8.757-3.187 15.978-7.041 21.521-12.627.934-.942 2.474-.747 3.155.391 4.444 7.426 15.236 14.628 19.579 17.408 13.505 8.645 23.407 22.138 27.398 26.666 1.694-7.877 2.809-17.044 2.809-24.762 0-22.235-7.158-41.98-20.768-54.431z" fill="#f2bb88"/><path d="m269.302 227.245c3.582-1.554 7.358-3.505 12.036-3.726 8.458-.4 17.783 1.91 24.631 8.844 22.564 22.847 8.331 58.938.285 71.507 0 0-11.734-14.671-29.421-25.993-4.826-3.089-8.917-6.777-12.151-10.763-3.087-3.803-4.173-8.454-5.593-12.537z" fill="#855b51"/><path d="m279.178 243.93c-2.91 8.61-7.92 16.51-14.49 23.18-3.09-3.8-5.39-7.88-6.82-11.96l10.8-28.81c3.58-1.55 7.99-2.6 12.67-2.83.91 6.41.21 13.42-2.16 20.42z" fill="#724d44"/><path d="m265.574 217.213c-3.628-5.668-10.067-9.278-17.977-10.621-13.008-2.209-29.276 2.782-44.295 13.759-29.954 21.893-21.552 67.736-11.957 82.723 0 0 3.126-3.755 9.933-10.534 7.037-7.009 17.919-15.606 33.138-21.145 28.111-10.232 40.753-39.195 31.158-54.182z" fill="#855b51"/><path d="m247.598 206.59c-9.76 1.44-20.3 5.59-30.02 12.69-24.16 17.65-22.78 52.55-16.3 73.26-6.66 6.7-10.017 12.067-10.017 12.067-9.6-14.99-18.633-63.437 11.317-85.327 15.02-10.98 32.01-14.89 45.02-12.69z" fill="#724d44"/><path d="m111.557 426.053h-39.606l-.202 9.245-.251 1.502v60.2h41.33v-64.236z" fill="#f8f7f7"/><path d="m112.827 390.626h-40.333l.064 41.427s.807 2.696 1.815 3.563c11.194 9.632 28.442 8.682 38.442-2.853l.013-.015v-17.118l-.95-6.811z" fill="#c48958"/><path d="m74.378 435.61-2.88 1.19v-4.05l.01.01c.484.56 1.362.589 1.88 1.096.443.436.523 1.357.99 1.754z" fill="#e8e8e8"/><path d="m84.498 390.63h-13v25.01 17.11l.01.01c.9 1.04 1.86 1.99 2.87 2.85l7.644-3.15c1.498-.617 2.476-2.078 2.476-3.698v-4.453c0-1.258 1.144-2.182 2.382-1.961 1.72.306 3.48.472 5.277.472 7.64 0 14.6-2.93 20.67-7.19v-25z" fill="#b27a49"/><path d="m96.196 292.096c-.027-.002 1.777-.086 0 0-23.324 0-42.41 9.115-47.903 28.185-1.55 5.382-2.34 11.399-2.34 17.982-.275 17.178 8.277 36.684 15.248 46.821 3.152 4.995 6.625 9.528 10.255 13.311.061.063.099.104.099.104s-.004-.005-.004-.006c6.69 6.942 13.905 11.327 20.605 11.327 20.671 0 46.203-41.651 46.203-71.557 0-6.895-.866-13.169-2.566-18.742-5.252-17.217-19.414-25.953-39.597-27.425z" fill="#c48958"/><path d="m136.255 321.17c-7.87-10.46-20.82-16.76-38.36-17.87-.03 0-3.7-.27-5.74-.18-20.48 0-35.4 6.49-44.11 18.07 5.27-19.62 20.42-31.07 44.11-31.07 1.78-.09 4.97.18 5 .18 20.82 1.52 34.21 12.68 39.1 30.87z" fill="#b27a49"/><path d="m434.855 272.245c0-1.581.841-3.397.613-4.915-1.927-12.797-11.682-23.03-24.233-25.667-2.065-.434-4.203.305-6.398.305-17.11 0-29.855 13.167-29.855 30.277s12.741 30.718 29.851 30.718 30.022-13.608 30.022-30.718z" fill="#855b51"/><path d="m450.394 344.266c0-29.907-15.653-54.148-45.56-54.148s-45.526 24.422-45.526 54.329c0 5.041 1.822 7.629 3.128 12.798.091.362-1.587 3.163-1.49 3.524 6.742 25.106 26.957 49.052 43.889 49.052 17.358 0 38.144-25.134 44.361-50.899.384-1.593-1.24-3.021-.971-4.613.559-3.323 2.169-6.802 2.169-10.043z" fill="#e3a76f"/><path d="m435.468 267.33c-8.83-4.82-19.07-7.33-30.02-7.33-4.13 0-8.221.366-12.207 1.072-1.608.285-2.905-1.352-2.181-2.816 4.057-8.2 11.635-14.346 20.768-16.467-2.24-.52-4.59-.79-6.99-.79-15.589 0-28.481 11.517-30.65 26.505-.123 1.65-.084-1.168-.33 4.475 0 17.602 14.68 31.776 32.466 30.945 16.568-.774 29.744-14.836 29.491-31.42-.022-1.415-.14-2.806-.347-4.174z" fill="#724d44"/><path d="m450.18 354.14c-.27 1.59-.6 3.19-.99 4.78-11.981-.856-23.193-13.347-31.848-26.669-.686-1.057-2.156-1.245-3.064-.371-13.508 13.01-33.432 28.181-53.338 28.89-.09-.36-.19-.73-.28-1.09-1.3-5.16-1.35-10.19-1.35-15.23 0-29.91 15.62-54.33 45.52-54.33 29.91 0 45.56 24.24 45.56 54.15 0 3.24.35 6.55-.21 9.87z" fill="#d6995c"/><path d="m434.673 281.178c-6.781-5.044-14.872-7.89-23.183-8.827-.461-.052-1.147.062-1.612.032-5.619-.369-11.197.623-16.612 1.755-6.945 1.453-12.321 4.553-17.723 8.34-16.623 11.655-30.018 40.379-15.414 67.49 3.961 0 7.333 1.082 11.312-.205 19.748-6.387 38.532-25.971 44.474-32.441.924-1.006 2.555-.805 3.216.389 4.405 7.955 18.883 32.257 31.366 32.257 13.541-33.447-3.806-59.85-15.824-68.79z" fill="#855b51"/><path d="m411.68 272.38c-8.89 1.01-17.38 4.07-24.13 8.8-16.21 11.36-29.02 41.93-16.11 68.58-3.98 1.29-8 2.04-11.96 2.04-14.6-27.11-1.56-58.97 15.07-70.62 10.01-7.02 23.86-10.35 37.13-8.8z" fill="#724d44"/></g></svg>